<svg class="svg-chart" id="svg-chart" xmlns="http://www.w3.org/2000/svg" xlink="http://www.w3.org/1999/xlink" width="400" height="300"><g transform="translate(25,10)"><defs><style>body {background-color: #ababab;font-family: 'Helvetica Neue', Helvetica, Arial, sans-serif;font-size: 12px;}.svg-chart .background {shape-rendering: crispEdges;stroke: #ccc;fill: #fdfdfd;stroke-width: 1px;}.svg-chart .bar { fill: #4682B4; }</style></defs><rect class="background" x="10" y="-10" width="355" height="245"></rect><g class="x axis " transform="translate(10,235)"><g class="tick" style="opacity: 1;" transform="translate(23.5,0)"><line y2="0" x2="0"></line><text y="3" x="0" dy=".71em" style="text-anchor: middle;">1</text></g><g class="tick" style="opacity: 1;" transform="translate(51.5,0)"><line y2="0" x2="0"></line><text y="3" x="0" dy=".71em" style="text-anchor: middle;">2</text></g><g class="tick" style="opacity: 1;" transform="translate(79.5,0)"><line y2="0" x2="0"></line><text y="3" x="0" dy=".71em" style="text-anchor: middle;">3</text></g><g class="tick" style="opacity: 1;" transform="translate(107.5,0)"><line y2="0" x2="0"></line><text y="3" x="0" dy=".71em" style="text-anchor: middle;">4</text></g><g class="tick" style="opacity: 1;" transform="translate(135.5,0)"><line y2="0" x2="0"></line><text y="3" x="0" dy=".71em" style="text-anchor: middle;">5</text></g><g class="tick" style="opacity: 1;" transform="translate(163.5,0)"><line y2="0" x2="0"></line><text y="3" x="0" dy=".71em" style="text-anchor: middle;">6</text></g><g class="tick" style="opacity: 1;" transform="translate(191.5,0)"><line y2="0" x2="0"></line><text y="3" x="0" dy=".71em" style="text-anchor: middle;">7</text></g><g class="tick" style="opacity: 1;" transform="translate(219.5,0)"><line y2="0" x2="0"></line><text y="3" x="0" dy=".71em" style="text-anchor: middle;">8</text></g><g class="tick" style="opacity: 1;" transform="translate(247.5,0)"><line y2="0" x2="0"></line><text y="3" x="0" dy=".71em" style="text-anchor: middle;">9</text></g><g class="tick" style="opacity: 1;" transform="translate(275.5,0)"><line y2="0" x2="0"></line><text y="3" x="0" dy=".71em" style="text-anchor: middle;">10</text></g><g class="tick" style="opacity: 1;" transform="translate(303.5,0)"><line y2="0" x2="0"></line><text y="3" x="0" dy=".71em" style="text-anchor: middle;">11</text></g><g class="tick" style="opacity: 1;" transform="translate(331.5,0)"><line y2="0" x2="0"></line><text y="3" x="0" dy=".71em" style="text-anchor: middle;">12</text></g><path class="domain" d="M0,0V0H355V0"></path><text class="axis-label" x="177.5" y="25" style="text-anchor: middle;">2012</text></g><g class="y axis" transform="translate(10, 0)"><g class="tick" style="opacity: 1;" transform="translate(0,235)"><line x2="355" y2="0"></line><text x="-3" y="0" dy=".32em" style="text-anchor: end;">0</text></g><g class="tick" style="opacity: 1;" transform="translate(0,164.85074626865674)"><line x2="355" y2="0"></line><text x="-3" y="0" dy=".32em" style="text-anchor: end;">20</text></g><g class="tick" style="opacity: 1;" transform="translate(0,94.70149253731344)"><line x2="355" y2="0"></line><text x="-3" y="0" dy=".32em" style="text-anchor: end;">40</text></g><g class="tick" style="opacity: 1;" transform="translate(0,24.55223880597015)"><line x2="355" y2="0"></line><text x="-3" y="0" dy=".32em" style="text-anchor: end;">60</text></g><path class="domain" d="M0,0H0V235H0"></path><text class="axis-label" transform="rotate(-90)" y="-25" x="-117.5" style="text-anchor: middle;">Views</text></g><rect class="bar" x="23" y="108.73134328358209" width="21" height="126.26865671641792"></rect><rect class="bar" x="51" y="84.17910447761196" width="21" height="150.82089552238804"></rect><rect class="bar" x="79" y="59.62686567164181" width="21" height="175.3731343283582"></rect><rect class="bar" x="107" y="91.19402985074626" width="21" height="143.80597014925374"></rect><rect class="bar" x="135" y="115.74626865671641" width="21" height="119.25373134328359"></rect><rect class="bar" x="163" y="80.67164179104478" width="21" height="154.32835820895522"></rect><rect class="bar" x="191" y="0" width="21" height="235"></rect><rect class="bar" x="219" y="14.029850746268664" width="21" height="220.97014925373134"></rect><rect class="bar" x="247" y="56.11940298507463" width="21" height="178.88059701492537"></rect><rect class="bar" x="275" y="49.1044776119403" width="21" height="185.8955223880597"></rect><rect class="bar" x="303" y="52.61194029850745" width="21" height="182.38805970149255"></rect><rect class="bar" x="331" y="24.55223880597015" width="21" height="210.44776119402985"></rect></g></svg>